<svg width="106" height="24" viewBox="0 0 106 24" fill="none" xmlns="http://www.w3.org/2000/svg">
    <path d="M50.3335 4.52027H52.9881V17.5068H50.3207L50.2186 15.6237C49.8443 16.2904 49.338 16.8271 48.6999 17.234C48.0617 17.641 47.3087 17.8444 46.4409 17.8444C45.505 17.8444 44.6243 17.6669 43.799 17.312C42.9737 16.9483 42.2462 16.4462 41.6166 15.8055C40.9955 15.1649 40.5105 14.429 40.1616 13.5978C39.8128 12.758 39.6384 11.8576 39.6384 10.8966C39.6384 9.97027 39.8085 9.10017 40.1489 8.28635C40.4892 7.46387 40.9614 6.74529 41.5655 6.13059C42.1696 5.5159 42.8673 5.0354 43.6586 4.68909C44.4584 4.33413 45.3135 4.15665 46.2239 4.15665C47.1513 4.15665 47.9682 4.37309 48.6744 4.80597C49.3891 5.2302 49.9804 5.77563 50.4484 6.44227L50.3335 4.52027ZM46.3771 15.2341C47.1258 15.2341 47.781 15.048 48.3425 14.6757C48.9041 14.2948 49.338 13.784 49.6443 13.1433C49.9591 12.5026 50.1165 11.7927 50.1165 11.0135C50.1165 10.2257 49.9591 9.51141 49.6443 8.87074C49.3295 8.23008 48.8913 7.7236 48.3298 7.35132C47.7767 6.97039 47.1258 6.77992 46.3771 6.77992C45.6368 6.77992 44.9604 6.97039 44.3478 7.35132C43.7352 7.73226 43.2502 8.24306 42.8929 8.88373C42.5355 9.5244 42.3568 10.2343 42.3568 11.0135C42.3568 11.8014 42.5398 12.5156 42.9056 13.1563C43.28 13.7883 43.7692 14.2948 44.3733 14.6757C44.9859 15.048 45.6539 15.2341 46.3771 15.2341Z" fill="#FDFDFD"/>
    <path d="M64.998 4.52027H67.6527V17.8444C67.6527 18.7361 67.4655 19.5586 67.0911 20.3118C66.7252 21.0651 66.2275 21.7144 65.5979 22.2598C64.9682 22.8139 64.245 23.2425 63.4282 23.5455C62.6199 23.8485 61.7733 24 60.8884 24C59.995 24 59.1357 23.8052 58.3104 23.4156C57.4851 23.0347 56.7576 22.5152 56.128 21.8572C55.5068 21.1992 55.0431 20.4547 54.7368 19.6236L57.1745 18.5067C57.3447 19.0435 57.6169 19.5197 57.9913 19.9352C58.3742 20.3508 58.8166 20.6798 59.3186 20.9222C59.8291 21.1646 60.3524 21.2858 60.8884 21.2858C61.416 21.2858 61.9222 21.1992 62.4072 21.0261C62.9007 20.8616 63.3389 20.6278 63.7218 20.3248C64.1131 20.0218 64.4237 19.6582 64.6534 19.234C64.8832 18.8097 64.998 18.3466 64.998 17.8444V15.6497C64.5811 16.3077 64.0451 16.8401 63.3899 17.247C62.7348 17.6453 61.9733 17.8444 61.1054 17.8444C60.2035 17.8444 59.3527 17.6669 58.5529 17.312C57.7531 16.957 57.0511 16.4678 56.447 15.8445C55.8429 15.2125 55.3707 14.4852 55.0304 13.6628C54.69 12.8403 54.5199 11.9572 54.5199 11.0135C54.5199 10.0698 54.69 9.18675 55.0304 8.36427C55.3707 7.53314 55.8429 6.80589 56.447 6.18254C57.0511 5.55053 57.7531 5.05705 58.5529 4.70208C59.3527 4.34712 60.2035 4.16964 61.1054 4.16964C61.9733 4.16964 62.7348 4.37309 63.3899 4.78C64.0451 5.17825 64.5811 5.7107 64.998 6.37734V4.52027ZM61.1309 15.2341C61.8712 15.2341 62.5178 15.0437 63.0709 14.6627C63.6239 14.2731 64.0536 13.758 64.3599 13.1173C64.6662 12.4767 64.8193 11.7754 64.8193 11.0135C64.8193 10.2343 64.6619 9.52873 64.3471 8.89672C64.0408 8.25605 63.6111 7.74525 63.0581 7.36431C62.505 6.97472 61.8627 6.77992 61.1309 6.77992C60.4162 6.77992 59.7611 6.97039 59.1655 7.35132C58.5784 7.73226 58.1104 8.24306 57.7616 8.88373C57.4127 9.5244 57.2383 10.2343 57.2383 11.0135C57.2383 11.7927 57.4127 12.5026 57.7616 13.1433C58.1189 13.784 58.5912 14.2948 59.1782 14.6757C59.7738 15.048 60.4247 15.2341 61.1309 15.2341Z" fill="#FDFDFD"/>
    <path d="M76.1067 17.8444C74.9326 17.8444 73.8605 17.5371 72.8905 16.9224C71.9291 16.3077 71.1591 15.4852 70.5805 14.4549C70.0104 13.416 69.7254 12.2689 69.7254 11.0135C69.7254 10.0612 69.8913 9.17376 70.2231 8.35128C70.555 7.52015 71.0102 6.79291 71.5887 6.16955C72.1758 5.53755 72.8565 5.04406 73.6308 4.68909C74.405 4.33413 75.2304 4.15665 76.1067 4.15665C77.2809 4.15665 78.3487 4.464 79.3102 5.07869C80.2801 5.69338 81.0501 6.52019 81.6202 7.55911C82.1988 8.59803 82.4881 9.7495 82.4881 11.0135C82.4881 11.9572 82.3222 12.8403 81.9903 13.6628C81.6585 14.4852 81.199 15.2125 80.612 15.8445C80.0334 16.4678 79.357 16.957 78.5827 17.312C77.8169 17.6669 76.9916 17.8444 76.1067 17.8444ZM76.1067 15.1432C76.8129 15.1432 77.4468 14.9527 78.0084 14.5718C78.5699 14.1909 79.0124 13.6887 79.3357 13.0654C79.6675 12.4334 79.8335 11.7494 79.8335 11.0135C79.8335 10.2603 79.6633 9.56769 79.3229 8.93568C78.9911 8.30367 78.5444 7.80152 77.9828 7.42924C77.4213 7.04831 76.7959 6.85784 76.1067 6.85784C75.409 6.85784 74.7752 7.04831 74.2051 7.42924C73.6435 7.81018 73.1969 8.31665 72.865 8.94866C72.5417 9.58067 72.38 10.269 72.38 11.0135C72.38 11.784 72.5502 12.481 72.8905 13.1043C73.2309 13.7277 73.6818 14.2255 74.2434 14.5978C74.8135 14.9614 75.4346 15.1432 76.1067 15.1432Z" fill="#FDFDFD"/>
    <path d="M84.55 17.5068V4.52027H87.2047V5.89684C87.6471 5.36006 88.1917 4.93584 88.8383 4.62416C89.485 4.31249 90.1826 4.15665 90.9314 4.15665C91.4079 4.15665 91.8801 4.22158 92.3481 4.35145L91.2887 7.07861C90.9569 6.94874 90.6251 6.88381 90.2933 6.88381C89.7317 6.88381 89.2169 7.02666 88.749 7.31237C88.281 7.58941 87.9066 7.96602 87.6259 8.44219C87.3451 8.91836 87.2047 9.44648 87.2047 10.0265V17.5068H84.55Z" fill="#FDFDFD"/>
    <path d="M103.154 4.52027H105.809V17.5068H103.141L103.039 15.6237C102.665 16.2904 102.159 16.8271 101.52 17.234C100.882 17.641 100.129 17.8444 99.2614 17.8444C98.3255 17.8444 97.4449 17.6669 96.6196 17.312C95.7942 16.9483 95.0668 16.4462 94.4371 15.8055C93.816 15.1649 93.331 14.429 92.9822 13.5978C92.6334 12.758 92.4589 11.8576 92.4589 10.8966C92.4589 9.97027 92.6291 9.10017 92.9694 8.28635C93.3098 7.46387 93.782 6.74529 94.3861 6.13059C94.9902 5.5159 95.6879 5.0354 96.4792 4.68909C97.279 4.33413 98.1341 4.15665 99.0445 4.15665C99.9719 4.15665 100.789 4.37309 101.495 4.80597C102.21 5.2302 102.801 5.77563 103.269 6.44227L103.154 4.52027ZM99.1976 15.2341C99.9464 15.2341 100.602 15.048 101.163 14.6757C101.725 14.2948 102.159 13.784 102.465 13.1433C102.78 12.5026 102.937 11.7927 102.937 11.0135C102.937 10.2257 102.78 9.51141 102.465 8.87074C102.15 8.23008 101.712 7.7236 101.15 7.35132C100.597 6.97039 99.9464 6.77992 99.1976 6.77992C98.4574 6.77992 97.781 6.97039 97.1684 7.35132C96.5557 7.73226 96.0708 8.24306 95.7134 8.88373C95.356 9.5244 95.1774 10.2343 95.1774 11.0135C95.1774 11.8014 95.3603 12.5156 95.7262 13.1563C96.1005 13.7883 96.5898 14.2948 97.1939 14.6757C97.8065 15.048 98.4744 15.2341 99.1976 15.2341Z" fill="#FDFDFD"/>
    <path d="M15.854 0.0457273C14.014 0.313065 12.5082 1.68183 11.9991 3.5425C11.8984 3.91677 11.8825 4.11995 11.8772 5.11979C11.8666 6.63292 11.7605 7.12482 11.225 8.19417C10.3872 9.8677 8.71693 11.1937 6.71792 11.7818C6.11875 11.9529 5.55139 12.0492 4.53333 12.1454C3.1441 12.2791 2.29041 12.6373 1.45263 13.4447C0.763312 14.113 0.317909 14.899 0.10051 15.8454C-0.042655 16.4549 -0.0320501 17.4547 0.127022 18.0536C0.572425 19.7485 1.8344 21.0371 3.49936 21.4862C4.10383 21.6519 5.17492 21.6519 5.7794 21.4862C7.22696 21.0959 8.45181 19.9944 8.96085 18.6257C9.22597 17.9146 9.26839 17.6258 9.27899 16.4014C9.2896 15.3588 9.3055 15.2038 9.42746 14.7386C9.77211 13.4179 10.2971 12.509 11.2515 11.584C12.2536 10.6056 13.4679 9.97999 14.9791 9.65918C15.7745 9.48809 16.9463 9.48809 17.7788 9.65384C18.9135 9.88375 19.9368 10.3008 20.8383 10.905C21.3844 11.2686 22.3601 12.247 22.7206 12.787C23.4948 13.9526 23.8129 15.1449 23.744 16.6046C23.7228 17.1286 23.7334 17.3959 23.8023 17.7649C24.1523 19.6255 25.4885 21.0371 27.3337 21.5129C27.9117 21.6573 28.9032 21.6466 29.4971 21.4915C31.6181 20.9194 33.0073 19.0908 33.0073 16.8773C33.0073 15.0647 32.037 13.45 30.4621 12.6587C29.7304 12.2951 29.3433 12.1989 28.1609 12.1187C27.7314 12.092 27.1428 12.0224 26.8618 11.969C23.8924 11.3862 21.6813 9.23679 21.2094 6.48321C21.1564 6.15706 21.1352 5.69724 21.1405 5.06633C21.1511 3.78845 21.0026 3.17892 20.4724 2.25928C20.1649 1.72995 19.3642 0.933288 18.8339 0.63387C17.8954 0.0991957 16.8667 -0.0986349 15.854 0.0457273Z" fill="#FDFDFD"/>
    <path d="M27.7992 0.0388094C26.8076 0.199212 25.9592 0.637645 25.254 1.35946C24.6548 1.96899 24.2624 2.65872 24.0397 3.48746C23.8754 4.09699 23.8754 5.2305 24.0397 5.84003C24.2783 6.74363 24.7131 7.45475 25.429 8.13378C25.7842 8.47063 25.9698 8.59895 26.4523 8.83421C27.2212 9.20848 27.6984 9.31542 28.5256 9.31007C29.2785 9.29938 29.7876 9.18175 30.4291 8.86094C31.5639 8.30488 32.3804 7.34781 32.8046 6.08063C32.969 5.59408 32.9743 5.54061 32.9796 4.69048C32.9796 3.71737 32.9319 3.45003 32.6031 2.72822C31.8767 1.10281 30.3814 0.0815833 28.6316 0.0120756C28.34 0.00138213 27.9635 0.0120756 27.7992 0.0388094Z" fill="#FDFDFD"/>
</svg>
