<svg width="40" height="40" viewBox="0 0 40 40" fill="none" xmlns="http://www.w3.org/2000/svg">
<path d="M19.6035 8.05077C17.5605 8.34761 15.8884 9.86742 15.3232 11.9334C15.2114 12.349 15.1937 12.5746 15.1878 13.6848C15.176 15.3649 15.0583 15.911 14.4636 17.0984C13.5334 18.9566 11.6788 20.4289 9.45924 21.082C8.79395 21.2719 8.16398 21.3788 7.03358 21.4857C5.49104 21.6341 4.54315 22.0318 3.61292 22.9283C2.84754 23.6704 2.35299 24.5431 2.1116 25.5939C1.95264 26.2707 1.96441 27.3808 2.14104 28.0458C2.63559 29.9277 4.03682 31.3585 5.88551 31.8572C6.55669 32.0412 7.74597 32.0412 8.41715 31.8572C10.0244 31.4238 11.3845 30.2008 11.9497 28.681C12.244 27.8914 12.2911 27.5708 12.3029 26.2113C12.3147 25.0536 12.3324 24.8815 12.4678 24.365C12.8505 22.8986 13.4333 21.8893 14.4931 20.8623C15.6058 19.7759 16.9541 19.0813 18.632 18.7251C19.5151 18.5351 20.8163 18.5351 21.7406 18.7191C23.0006 18.9744 24.1369 19.4375 25.1377 20.1083C25.7441 20.512 26.8275 21.5984 27.2278 22.1981C28.0874 23.4923 28.4406 24.8162 28.3641 26.4369C28.3405 27.0187 28.3523 27.3155 28.4289 27.7252C28.8174 29.7912 30.3011 31.3585 32.35 31.8868C32.9917 32.0471 34.0927 32.0353 34.7521 31.8631C37.1071 31.2279 38.6496 29.1975 38.6496 26.7397C38.6496 24.7271 37.5722 22.9342 35.8236 22.0556C35.0111 21.6519 34.5813 21.545 33.2684 21.456C32.7915 21.4263 32.138 21.3491 31.826 21.2897C28.5289 20.6426 26.0738 18.2561 25.5499 15.1986C25.491 14.8365 25.4674 14.3259 25.4733 13.6254C25.4851 12.2065 25.3202 11.5297 24.7315 10.5086C24.39 9.92085 23.501 9.03628 22.9122 8.70382C21.8702 8.11014 20.728 7.89048 19.6035 8.05077Z" fill="#001529"/>
<path d="M32.8667 8.04309C31.7658 8.22119 30.8238 8.70801 30.0407 9.50947C29.3754 10.1863 28.9398 10.9521 28.6925 11.8723C28.51 12.5491 28.51 13.8077 28.6925 14.4845C28.9574 15.4878 29.4402 16.2774 30.235 17.0313C30.6295 17.4054 30.8355 17.5478 31.3713 17.8091C32.225 18.2246 32.7549 18.3434 33.6733 18.3374C34.5094 18.3255 35.0746 18.1949 35.787 17.8387C37.0469 17.2213 37.9536 16.1586 38.4246 14.7516C38.6071 14.2114 38.613 14.152 38.6189 13.2081C38.6189 12.1276 38.5659 11.8307 38.2009 11.0293C37.3943 9.22451 35.734 8.09059 33.7911 8.01341C33.4673 8.00153 33.0493 8.01341 32.8667 8.04309Z" fill="#001529"/>
</svg>
